# xmcd
#
# Track frame offsets:
#	150
#	23199
#	43738
#	66178
#	87990
#	111162
#	133364
#	154843
#	183647
#	204032
#	227227
#	247109
#	269916
#	292061
#	311565
#
# Disc length: 4456 seconds
#
# Revision: 0
# Processed by: cddbd v1.5.1PL2 Copyright (c) Steve Scherf et al.
# Submitted via: dBpowerAMP V4.0
#
DISCID=ea11660f
DTITLE=Frankie Ruiz - Grandes éxitos
DYEAR=1900
DGENRE=Salsa
TTITLE0=Ironia
TTITLE1=Quiero llenarte
TTITLE2=La cura
TTITLE3=Desnudarte mujer
TTITLE4=Mirandote
TTITLE5=Bailando
TTITLE6=Deseandote
TTITLE7=La rueda
TTITLE8=Mi liberrtad
TTITLE9=Como lo hacen?
TTITLE10=Lo dudo
TTITLE11=Tu con el
TTITLE12=Primero fui yo
TTITLE13=Que se mueran de envidia
TTITLE14=Imposible amor
EXTD=
EXTT0=
EXTT1=
EXTT2=
EXTT3=
EXTT4=
EXTT5=
EXTT6=
EXTT7=
EXTT8=
EXTT9=
EXTT10=
EXTT11=
EXTT12=
EXTT13=
EXTT14=
PLAYORDER=
